<svg xmlns="http://www.w3.org/2000/svg" xmlns:xlink="http://www.w3.org/1999/xlink" width="200" zoomAndPan="magnify" viewBox="0 0 150 60" height="80" preserveAspectRatio="xMidYMid meet" version="1.0"><defs><g/><clipPath id="f191d36b29"><path d="M 14 19.347656 L 28.25 19.347656 L 28.25 38.847656 L 14 38.847656 Z M 14 19.347656 " clip-rule="nonzero"/></clipPath></defs><rect x="-15" width="180" fill="#ffffff" y="-6" height="72" fill-opacity="1"/><rect x="-15" width="180" fill="#ffffff" y="-6" height="72" fill-opacity="1"/><g fill="#ffffff" fill-opacity="0.4"><g transform="translate(29.219595, 35.978349)"><g><path d="M 5.875 0 L 0.9375 0 L 0.9375 -7.96875 L 2.921875 -7.96875 L 2.921875 -1.796875 L 5.875 -1.796875 Z M 5.875 0 "/></g></g></g><g fill="#ffffff" fill-opacity="0.4"><g transform="translate(34.927121, 35.978349)"><g><path d="M 3.609375 0.140625 C 3.035156 0.140625 2.492188 0.015625 1.984375 -0.234375 C 1.484375 -0.484375 1.078125 -0.84375 0.765625 -1.3125 C 0.460938 -1.78125 0.3125 -2.328125 0.3125 -2.953125 C 0.3125 -3.578125 0.460938 -4.125 0.765625 -4.59375 C 1.078125 -5.0625 1.484375 -5.421875 1.984375 -5.671875 C 2.492188 -5.929688 3.035156 -6.0625 3.609375 -6.0625 C 4.171875 -6.0625 4.703125 -5.929688 5.203125 -5.671875 C 5.703125 -5.421875 6.101562 -5.0625 6.40625 -4.59375 C 6.71875 -4.125 6.875 -3.578125 6.875 -2.953125 C 6.875 -2.328125 6.71875 -1.78125 6.40625 -1.3125 C 6.101562 -0.84375 5.703125 -0.484375 5.203125 -0.234375 C 4.703125 0.015625 4.171875 0.140625 3.609375 0.140625 Z M 3.609375 -1.546875 C 4.015625 -1.546875 4.347656 -1.675781 4.609375 -1.9375 C 4.867188 -2.207031 5 -2.546875 5 -2.953125 C 5 -3.359375 4.867188 -3.695312 4.609375 -3.96875 C 4.347656 -4.238281 4.015625 -4.375 3.609375 -4.375 C 3.191406 -4.375 2.851562 -4.238281 2.59375 -3.96875 C 2.332031 -3.695312 2.203125 -3.359375 2.203125 -2.953125 C 2.203125 -2.546875 2.332031 -2.207031 2.59375 -1.9375 C 2.851562 -1.675781 3.191406 -1.546875 3.609375 -1.546875 Z M 3.609375 -1.546875 "/></g></g></g><g fill="#ffffff" fill-opacity="0.4"><g transform="translate(41.680696, 35.978349)"><g><path d="M 4.40625 -4.25 L 3.0625 -4.25 L 3.0625 -2.578125 C 3.0625 -2.296875 3.140625 -2.078125 3.296875 -1.921875 C 3.453125 -1.765625 3.671875 -1.6875 3.953125 -1.6875 L 4.40625 -1.6875 L 4.40625 0 L 3.359375 0 C 2.660156 0 2.117188 -0.195312 1.734375 -0.59375 C 1.347656 -0.988281 1.15625 -1.535156 1.15625 -2.234375 L 1.15625 -4.25 L 0.1875 -4.25 L 0.1875 -5.921875 L 1.15625 -5.921875 L 1.15625 -7.484375 L 3.0625 -7.484375 L 3.0625 -5.921875 L 4.40625 -5.921875 Z M 4.40625 -4.25 "/></g></g></g><g fill="#ffffff" fill-opacity="0.4"><g transform="translate(46.12615, 35.978349)"><g><path d="M 4.328125 -6.0625 C 4.773438 -6.0625 5.175781 -5.953125 5.53125 -5.734375 C 5.894531 -5.523438 6.175781 -5.234375 6.375 -4.859375 C 6.570312 -4.484375 6.671875 -4.054688 6.671875 -3.578125 L 6.671875 0 L 4.78125 0 L 4.78125 -3.15625 C 4.78125 -3.519531 4.691406 -3.8125 4.515625 -4.03125 C 4.335938 -4.257812 4.082031 -4.375 3.75 -4.375 C 3.4375 -4.375 3.175781 -4.257812 2.96875 -4.03125 C 2.769531 -3.8125 2.671875 -3.519531 2.671875 -3.15625 L 2.671875 0 L 0.78125 0 L 0.78125 -8.1875 L 2.671875 -8.1875 L 2.671875 -5.421875 C 3.128906 -5.847656 3.679688 -6.0625 4.328125 -6.0625 Z M 4.328125 -6.0625 "/></g></g></g><g fill="#ffffff" fill-opacity="0.4"><g transform="translate(53.027533, 35.978349)"><g><path d="M 2.609375 0 L 0.71875 0 L 0.71875 -5.921875 L 2.609375 -5.921875 Z M 2.640625 -6.828125 L 0.6875 -6.828125 L 0.6875 -8.34375 L 2.640625 -8.34375 Z M 2.640625 -6.828125 "/></g></g></g><g fill="#ffffff" fill-opacity="0.4"><g transform="translate(55.926658, 35.978349)"><g><path d="M 5.109375 -5.921875 L 6.859375 -5.921875 L 6.859375 0 L 5.109375 0 L 5.109375 -0.578125 C 4.671875 -0.0976562 4.050781 0.140625 3.25 0.140625 C 2.769531 0.140625 2.304688 0.015625 1.859375 -0.234375 C 1.410156 -0.484375 1.046875 -0.84375 0.765625 -1.3125 C 0.484375 -1.789062 0.34375 -2.335938 0.34375 -2.953125 C 0.34375 -3.566406 0.484375 -4.109375 0.765625 -4.578125 C 1.046875 -5.054688 1.410156 -5.421875 1.859375 -5.671875 C 2.304688 -5.929688 2.769531 -6.0625 3.25 -6.0625 C 4.039062 -6.0625 4.660156 -5.816406 5.109375 -5.328125 Z M 3.640625 -1.53125 C 4.046875 -1.53125 4.382812 -1.664062 4.65625 -1.9375 C 4.925781 -2.207031 5.0625 -2.546875 5.0625 -2.953125 C 5.0625 -3.367188 4.925781 -3.707031 4.65625 -3.96875 C 4.382812 -4.238281 4.046875 -4.375 3.640625 -4.375 C 3.234375 -4.375 2.894531 -4.238281 2.625 -3.96875 C 2.351562 -3.707031 2.21875 -3.367188 2.21875 -2.953125 C 2.21875 -2.546875 2.351562 -2.207031 2.625 -1.9375 C 2.894531 -1.664062 3.234375 -1.53125 3.640625 -1.53125 Z M 3.640625 -1.53125 "/></g></g></g><g fill="#ffffff" fill-opacity="0.4"><g transform="translate(63.066815, 35.978349)"><g><path d="M 4.234375 -6.0625 C 4.691406 -6.0625 5.097656 -5.953125 5.453125 -5.734375 C 5.816406 -5.523438 6.101562 -5.226562 6.3125 -4.84375 C 6.519531 -4.46875 6.625 -4.035156 6.625 -3.546875 L 6.625 0 L 4.71875 0 L 4.71875 -3.15625 C 4.71875 -3.519531 4.628906 -3.8125 4.453125 -4.03125 C 4.273438 -4.257812 4.023438 -4.375 3.703125 -4.375 C 3.378906 -4.375 3.113281 -4.257812 2.90625 -4.03125 C 2.707031 -3.8125 2.609375 -3.519531 2.609375 -3.15625 L 2.609375 0 L 0.71875 0 L 0.71875 -5.921875 L 2.484375 -5.921875 L 2.484375 -5.34375 C 2.953125 -5.820312 3.535156 -6.0625 4.234375 -6.0625 Z M 4.234375 -6.0625 "/></g></g></g><g fill="#737373" fill-opacity="1"><g transform="translate(29.219595, 35.978349)"><g><path d="M 5.875 0 L 0.9375 0 L 0.9375 -7.96875 L 2.921875 -7.96875 L 2.921875 -1.796875 L 5.875 -1.796875 Z M 5.875 0 "/></g></g></g><g fill="#737373" fill-opacity="1"><g transform="translate(34.927121, 35.978349)"><g><path d="M 3.609375 0.140625 C 3.035156 0.140625 2.492188 0.015625 1.984375 -0.234375 C 1.484375 -0.484375 1.078125 -0.84375 0.765625 -1.3125 C 0.460938 -1.78125 0.3125 -2.328125 0.3125 -2.953125 C 0.3125 -3.578125 0.460938 -4.125 0.765625 -4.59375 C 1.078125 -5.0625 1.484375 -5.421875 1.984375 -5.671875 C 2.492188 -5.929688 3.035156 -6.0625 3.609375 -6.0625 C 4.171875 -6.0625 4.703125 -5.929688 5.203125 -5.671875 C 5.703125 -5.421875 6.101562 -5.0625 6.40625 -4.59375 C 6.71875 -4.125 6.875 -3.578125 6.875 -2.953125 C 6.875 -2.328125 6.71875 -1.78125 6.40625 -1.3125 C 6.101562 -0.84375 5.703125 -0.484375 5.203125 -0.234375 C 4.703125 0.015625 4.171875 0.140625 3.609375 0.140625 Z M 3.609375 -1.546875 C 4.015625 -1.546875 4.347656 -1.675781 4.609375 -1.9375 C 4.867188 -2.207031 5 -2.546875 5 -2.953125 C 5 -3.359375 4.867188 -3.695312 4.609375 -3.96875 C 4.347656 -4.238281 4.015625 -4.375 3.609375 -4.375 C 3.191406 -4.375 2.851562 -4.238281 2.59375 -3.96875 C 2.332031 -3.695312 2.203125 -3.359375 2.203125 -2.953125 C 2.203125 -2.546875 2.332031 -2.207031 2.59375 -1.9375 C 2.851562 -1.675781 3.191406 -1.546875 3.609375 -1.546875 Z M 3.609375 -1.546875 "/></g></g></g><g fill="#737373" fill-opacity="1"><g transform="translate(41.680696, 35.978349)"><g><path d="M 4.40625 -4.25 L 3.0625 -4.25 L 3.0625 -2.578125 C 3.0625 -2.296875 3.140625 -2.078125 3.296875 -1.921875 C 3.453125 -1.765625 3.671875 -1.6875 3.953125 -1.6875 L 4.40625 -1.6875 L 4.40625 0 L 3.359375 0 C 2.660156 0 2.117188 -0.195312 1.734375 -0.59375 C 1.347656 -0.988281 1.15625 -1.535156 1.15625 -2.234375 L 1.15625 -4.25 L 0.1875 -4.25 L 0.1875 -5.921875 L 1.15625 -5.921875 L 1.15625 -7.484375 L 3.0625 -7.484375 L 3.0625 -5.921875 L 4.40625 -5.921875 Z M 4.40625 -4.25 "/></g></g></g><g fill="#737373" fill-opacity="1"><g transform="translate(46.12615, 35.978349)"><g><path d="M 4.328125 -6.0625 C 4.773438 -6.0625 5.175781 -5.953125 5.53125 -5.734375 C 5.894531 -5.523438 6.175781 -5.234375 6.375 -4.859375 C 6.570312 -4.484375 6.671875 -4.054688 6.671875 -3.578125 L 6.671875 0 L 4.78125 0 L 4.78125 -3.15625 C 4.78125 -3.519531 4.691406 -3.8125 4.515625 -4.03125 C 4.335938 -4.257812 4.082031 -4.375 3.75 -4.375 C 3.4375 -4.375 3.175781 -4.257812 2.96875 -4.03125 C 2.769531 -3.8125 2.671875 -3.519531 2.671875 -3.15625 L 2.671875 0 L 0.78125 0 L 0.78125 -8.1875 L 2.671875 -8.1875 L 2.671875 -5.421875 C 3.128906 -5.847656 3.679688 -6.0625 4.328125 -6.0625 Z M 4.328125 -6.0625 "/></g></g></g><g fill="#737373" fill-opacity="1"><g transform="translate(53.027533, 35.978349)"><g><path d="M 2.609375 0 L 0.71875 0 L 0.71875 -5.921875 L 2.609375 -5.921875 Z M 2.640625 -6.828125 L 0.6875 -6.828125 L 0.6875 -8.34375 L 2.640625 -8.34375 Z M 2.640625 -6.828125 "/></g></g></g><g fill="#737373" fill-opacity="1"><g transform="translate(55.926658, 35.978349)"><g><path d="M 5.109375 -5.921875 L 6.859375 -5.921875 L 6.859375 0 L 5.109375 0 L 5.109375 -0.578125 C 4.671875 -0.0976562 4.050781 0.140625 3.25 0.140625 C 2.769531 0.140625 2.304688 0.015625 1.859375 -0.234375 C 1.410156 -0.484375 1.046875 -0.84375 0.765625 -1.3125 C 0.484375 -1.789062 0.34375 -2.335938 0.34375 -2.953125 C 0.34375 -3.566406 0.484375 -4.109375 0.765625 -4.578125 C 1.046875 -5.054688 1.410156 -5.421875 1.859375 -5.671875 C 2.304688 -5.929688 2.769531 -6.0625 3.25 -6.0625 C 4.039062 -6.0625 4.660156 -5.816406 5.109375 -5.328125 Z M 3.640625 -1.53125 C 4.046875 -1.53125 4.382812 -1.664062 4.65625 -1.9375 C 4.925781 -2.207031 5.0625 -2.546875 5.0625 -2.953125 C 5.0625 -3.367188 4.925781 -3.707031 4.65625 -3.96875 C 4.382812 -4.238281 4.046875 -4.375 3.640625 -4.375 C 3.234375 -4.375 2.894531 -4.238281 2.625 -3.96875 C 2.351562 -3.707031 2.21875 -3.367188 2.21875 -2.953125 C 2.21875 -2.546875 2.351562 -2.207031 2.625 -1.9375 C 2.894531 -1.664062 3.234375 -1.53125 3.640625 -1.53125 Z M 3.640625 -1.53125 "/></g></g></g><g fill="#737373" fill-opacity="1"><g transform="translate(63.066815, 35.978349)"><g><path d="M 4.234375 -6.0625 C 4.691406 -6.0625 5.097656 -5.953125 5.453125 -5.734375 C 5.816406 -5.523438 6.101562 -5.226562 6.3125 -4.84375 C 6.519531 -4.46875 6.625 -4.035156 6.625 -3.546875 L 6.625 0 L 4.71875 0 L 4.71875 -3.15625 C 4.71875 -3.519531 4.628906 -3.8125 4.453125 -4.03125 C 4.273438 -4.257812 4.023438 -4.375 3.703125 -4.375 C 3.378906 -4.375 3.113281 -4.257812 2.90625 -4.03125 C 2.707031 -3.8125 2.609375 -3.519531 2.609375 -3.15625 L 2.609375 0 L 0.71875 0 L 0.71875 -5.921875 L 2.484375 -5.921875 L 2.484375 -5.34375 C 2.953125 -5.820312 3.535156 -6.0625 4.234375 -6.0625 Z M 4.234375 -6.0625 "/></g></g></g><g fill="#1a7240" fill-opacity="1"><g transform="translate(72.188296, 36.348342)"><g><path d="M 4.5625 0 L 2.046875 0 L 3.546875 -7.765625 L 1.09375 -7.765625 L 1.515625 -10.03125 L 8.921875 -10.03125 L 8.5 -7.765625 L 6.046875 -7.765625 Z M 4.5625 0 "/></g></g></g><g fill="#1a7240" fill-opacity="1"><g transform="translate(79.62647, 36.348342)"><g><path d="M 4.875 -3.359375 L 8.390625 -10.03125 L 11.15625 -10.03125 L 5.515625 0 L 3.1875 0 L 1.375 -10.03125 L 3.90625 -10.03125 Z M 4.875 -3.359375 "/></g></g></g><path fill="#737373" d="M 23.972656 32.953125 C 23.800781 32.769531 23.492188 32.78125 23.265625 32.9375 C 21.925781 33.867188 20.148438 33.867188 18.808594 32.9375 C 18.582031 32.78125 18.273438 32.769531 18.101562 32.953125 C 17.925781 33.132812 18 33.484375 18.292969 33.6875 C 19.9375 34.832031 22.132812 34.832031 23.78125 33.6875 C 24.074219 33.484375 24.148438 33.132812 23.972656 32.953125 Z M 23.972656 32.953125 " fill-opacity="1" fill-rule="nonzero"/><path fill="#737373" d="M 23.199219 29.105469 C 22.554688 29.105469 22.027344 29.628906 22.027344 30.277344 C 22.027344 30.925781 22.554688 31.449219 23.199219 31.449219 C 23.847656 31.449219 24.375 30.925781 24.375 30.277344 C 24.375 29.628906 23.847656 29.105469 23.199219 29.105469 Z M 23.199219 29.105469 " fill-opacity="1" fill-rule="nonzero"/><path fill="#737373" d="M 18.976562 29.105469 C 18.328125 29.105469 17.804688 29.628906 17.804688 30.277344 C 17.804688 30.925781 18.328125 31.449219 18.976562 31.449219 C 19.625 31.449219 20.148438 30.925781 20.148438 30.277344 C 20.148438 29.628906 19.625 29.105469 18.976562 29.105469 Z M 18.976562 29.105469 " fill-opacity="1" fill-rule="nonzero"/><g clip-path="url(#f191d36b29)"><path fill="#1a7240" d="M 23.773438 24.53125 L 22.523438 24.53125 L 23.769531 23.074219 C 23.910156 23.128906 24.0625 23.164062 24.226562 23.164062 C 24.90625 23.164062 25.457031 22.609375 25.457031 21.929688 C 25.457031 21.25 24.90625 20.699219 24.226562 20.699219 C 23.542969 20.699219 22.992188 21.25 22.992188 21.929688 C 22.992188 22.175781 23.066406 22.40625 23.191406 22.597656 L 21.570312 24.53125 L 21.035156 24.53125 L 19.078125 22.136719 C 19.3125 21.84375 19.457031 21.46875 19.457031 21.0625 C 19.457031 20.121094 18.691406 19.359375 17.75 19.359375 C 16.808594 19.359375 16.042969 20.121094 16.042969 21.0625 C 16.042969 22.007812 16.808594 22.769531 17.75 22.769531 C 17.941406 22.769531 18.128906 22.738281 18.300781 22.679688 L 19.808594 24.53125 L 18.40625 24.53125 C 15.972656 24.53125 14 26.503906 14 28.9375 L 14 34.304688 C 14 36.738281 15.972656 38.710938 18.40625 38.710938 L 23.773438 38.710938 C 26.207031 38.710938 28.179688 36.738281 28.179688 34.304688 L 28.179688 28.9375 C 28.179688 26.503906 26.207031 24.53125 23.773438 24.53125 Z M 23.496094 37.984375 C 23.316406 37.984375 23.171875 37.839844 23.171875 37.660156 C 23.171875 37.480469 23.316406 37.335938 23.496094 37.335938 C 23.675781 37.335938 23.824219 37.480469 23.824219 37.660156 C 23.824219 37.839844 23.675781 37.984375 23.496094 37.984375 Z M 26.300781 34.304688 C 26.300781 35.695312 25.164062 36.832031 23.773438 36.832031 L 18.40625 36.832031 C 17.011719 36.832031 15.878906 35.695312 15.878906 34.304688 L 15.878906 28.9375 C 15.878906 27.542969 17.011719 26.410156 18.40625 26.410156 L 23.773438 26.410156 C 25.164062 26.410156 26.300781 27.542969 26.300781 28.9375 Z M 26.300781 34.304688 " fill-opacity="1" fill-rule="nonzero"/></g><g fill="#ffffff" fill-opacity="0.4"><g transform="translate(89.762735, 37.712175)"><g><path d="M 8.875 -7.5 L 9.96875 0 L 8.125 0 L 7.546875 -4.1875 L 5.75 0 L 4.765625 0 L 2.953125 -4.21875 L 2.375 0 L 0.53125 0 L 1.625 -7.5 L 3.25 -7.5 L 5.265625 -2.78125 L 7.28125 -7.5 Z M 8.875 -7.5 "/></g></g></g><g fill="#ffffff" fill-opacity="0.4"><g transform="translate(99.849775, 37.712175)"><g><path d="M 3.390625 0.140625 C 2.859375 0.140625 2.351562 0.0234375 1.875 -0.203125 C 1.40625 -0.441406 1.023438 -0.78125 0.734375 -1.21875 C 0.441406 -1.664062 0.296875 -2.1875 0.296875 -2.78125 C 0.296875 -3.375 0.441406 -3.890625 0.734375 -4.328125 C 1.023438 -4.773438 1.40625 -5.117188 1.875 -5.359375 C 2.351562 -5.597656 2.859375 -5.71875 3.390625 -5.71875 C 3.929688 -5.71875 4.4375 -5.597656 4.90625 -5.359375 C 5.375 -5.117188 5.753906 -4.773438 6.046875 -4.328125 C 6.335938 -3.890625 6.484375 -3.375 6.484375 -2.78125 C 6.484375 -2.1875 6.335938 -1.664062 6.046875 -1.21875 C 5.753906 -0.78125 5.375 -0.441406 4.90625 -0.203125 C 4.4375 0.0234375 3.929688 0.140625 3.390625 0.140625 Z M 3.390625 -1.453125 C 3.785156 -1.453125 4.101562 -1.578125 4.34375 -1.828125 C 4.59375 -2.078125 4.71875 -2.394531 4.71875 -2.78125 C 4.71875 -3.164062 4.59375 -3.484375 4.34375 -3.734375 C 4.101562 -3.984375 3.785156 -4.109375 3.390625 -4.109375 C 3.003906 -4.109375 2.6875 -3.984375 2.4375 -3.734375 C 2.195312 -3.484375 2.078125 -3.164062 2.078125 -2.78125 C 2.078125 -2.394531 2.195312 -2.078125 2.4375 -1.828125 C 2.6875 -1.578125 3.003906 -1.453125 3.390625 -1.453125 Z M 3.390625 -1.453125 "/></g></g></g><g fill="#ffffff" fill-opacity="0.4"><g transform="translate(106.21709, 37.712175)"><g><path d="M 3.328125 0.140625 C 2.773438 0.140625 2.289062 0.03125 1.875 -0.1875 C 1.46875 -0.414062 1.15625 -0.734375 0.9375 -1.140625 C 0.726562 -1.554688 0.625 -2.035156 0.625 -2.578125 L 0.625 -5.578125 L 2.40625 -5.578125 L 2.40625 -2.53125 C 2.40625 -2.195312 2.488281 -1.929688 2.65625 -1.734375 C 2.832031 -1.546875 3.054688 -1.453125 3.328125 -1.453125 C 3.609375 -1.453125 3.832031 -1.546875 4 -1.734375 C 4.164062 -1.929688 4.25 -2.195312 4.25 -2.53125 L 4.25 -5.578125 L 6.046875 -5.578125 L 6.046875 -2.578125 C 6.046875 -2.035156 5.9375 -1.554688 5.71875 -1.140625 C 5.507812 -0.734375 5.195312 -0.414062 4.78125 -0.1875 C 4.375 0.03125 3.890625 0.140625 3.328125 0.140625 Z M 3.328125 0.140625 "/></g></g></g><g fill="#ffffff" fill-opacity="0.4"><g transform="translate(112.466487, 37.712175)"><g><path d="M 3.984375 -5.71875 C 4.421875 -5.71875 4.804688 -5.613281 5.140625 -5.40625 C 5.484375 -5.207031 5.75 -4.925781 5.9375 -4.5625 C 6.132812 -4.207031 6.234375 -3.800781 6.234375 -3.34375 L 6.234375 0 L 4.453125 0 L 4.453125 -2.96875 C 4.453125 -3.320312 4.363281 -3.597656 4.1875 -3.796875 C 4.019531 -4.003906 3.785156 -4.109375 3.484375 -4.109375 C 3.179688 -4.109375 2.9375 -4.003906 2.75 -3.796875 C 2.5625 -3.585938 2.46875 -3.3125 2.46875 -2.96875 L 2.46875 0 L 0.671875 0 L 0.671875 -5.578125 L 2.34375 -5.578125 L 2.34375 -5.03125 C 2.78125 -5.488281 3.328125 -5.71875 3.984375 -5.71875 Z M 3.984375 -5.71875 "/></g></g></g><g fill="#ffffff" fill-opacity="0.4"><g transform="translate(118.91956, 37.712175)"><g><path d="M 4.15625 -4 L 2.890625 -4 L 2.890625 -2.4375 C 2.890625 -2.164062 2.960938 -1.957031 3.109375 -1.8125 C 3.253906 -1.664062 3.457031 -1.59375 3.71875 -1.59375 L 4.15625 -1.59375 L 4.15625 0 L 3.171875 0 C 2.503906 0 1.988281 -0.179688 1.625 -0.546875 C 1.269531 -0.921875 1.09375 -1.4375 1.09375 -2.09375 L 1.09375 -4 L 0.1875 -4 L 0.1875 -5.578125 L 1.09375 -5.578125 L 1.09375 -7.046875 L 2.890625 -7.046875 L 2.890625 -5.578125 L 4.15625 -5.578125 Z M 4.15625 -4 "/></g></g></g><g fill="#ffffff" fill-opacity="0.4"><g transform="translate(123.110781, 37.712175)"><g><path d="M 2.46875 0 L 0.671875 0 L 0.671875 -5.578125 L 2.46875 -5.578125 Z M 2.484375 -6.4375 L 0.640625 -6.4375 L 0.640625 -7.875 L 2.484375 -7.875 Z M 2.484375 -6.4375 "/></g></g></g><g fill="#ffffff" fill-opacity="0.4"><g transform="translate(125.844129, 37.712175)"><g><path d="M 3.984375 -5.71875 C 4.421875 -5.71875 4.804688 -5.613281 5.140625 -5.40625 C 5.484375 -5.207031 5.75 -4.925781 5.9375 -4.5625 C 6.132812 -4.207031 6.234375 -3.800781 6.234375 -3.34375 L 6.234375 0 L 4.453125 0 L 4.453125 -2.96875 C 4.453125 -3.320312 4.363281 -3.597656 4.1875 -3.796875 C 4.019531 -4.003906 3.785156 -4.109375 3.484375 -4.109375 C 3.179688 -4.109375 2.9375 -4.003906 2.75 -3.796875 C 2.5625 -3.585938 2.46875 -3.3125 2.46875 -2.96875 L 2.46875 0 L 0.671875 0 L 0.671875 -5.578125 L 2.34375 -5.578125 L 2.34375 -5.03125 C 2.78125 -5.488281 3.328125 -5.71875 3.984375 -5.71875 Z M 3.984375 -5.71875 "/></g></g></g><g fill="#ffffff" fill-opacity="0.4"><g transform="translate(132.297202, 37.712175)"><g><path d="M 4.703125 -5.578125 L 6.359375 -5.578125 L 6.359375 -0.578125 C 6.359375 -0.015625 6.253906 0.492188 6.046875 0.953125 C 5.847656 1.421875 5.523438 1.789062 5.078125 2.0625 C 4.628906 2.332031 4.0625 2.46875 3.375 2.46875 C 2.53125 2.46875 1.863281 2.265625 1.375 1.859375 C 0.882812 1.453125 0.578125 0.929688 0.453125 0.296875 L 2.234375 0.296875 C 2.460938 0.722656 2.835938 0.9375 3.359375 0.9375 C 3.765625 0.9375 4.070312 0.816406 4.28125 0.578125 C 4.5 0.347656 4.609375 0.046875 4.609375 -0.328125 L 4.609375 -0.71875 C 4.429688 -0.539062 4.203125 -0.394531 3.921875 -0.28125 C 3.648438 -0.175781 3.335938 -0.125 2.984375 -0.125 C 2.546875 -0.125 2.117188 -0.238281 1.703125 -0.46875 C 1.296875 -0.695312 0.960938 -1.023438 0.703125 -1.453125 C 0.453125 -1.878906 0.328125 -2.367188 0.328125 -2.921875 C 0.328125 -3.484375 0.453125 -3.972656 0.703125 -4.390625 C 0.960938 -4.816406 1.296875 -5.144531 1.703125 -5.375 C 2.109375 -5.601562 2.535156 -5.71875 2.984375 -5.71875 C 3.703125 -5.71875 4.273438 -5.488281 4.703125 -5.03125 Z M 3.375 -1.65625 C 3.75 -1.65625 4.054688 -1.773438 4.296875 -2.015625 C 4.535156 -2.253906 4.65625 -2.554688 4.65625 -2.921875 C 4.65625 -3.285156 4.535156 -3.585938 4.296875 -3.828125 C 4.054688 -4.066406 3.75 -4.1875 3.375 -4.1875 C 3 -4.1875 2.691406 -4.066406 2.453125 -3.828125 C 2.210938 -3.585938 2.09375 -3.285156 2.09375 -2.921875 C 2.09375 -2.554688 2.210938 -2.253906 2.453125 -2.015625 C 2.691406 -1.773438 3 -1.65625 3.375 -1.65625 Z M 3.375 -1.65625 "/></g></g></g><g fill="#737373" fill-opacity="1"><g transform="translate(89.762735, 37.712175)"><g><path d="M 8.875 -7.5 L 9.96875 0 L 8.125 0 L 7.546875 -4.1875 L 5.75 0 L 4.765625 0 L 2.953125 -4.21875 L 2.375 0 L 0.53125 0 L 1.625 -7.5 L 3.25 -7.5 L 5.265625 -2.78125 L 7.28125 -7.5 Z M 8.875 -7.5 "/></g></g></g><g fill="#737373" fill-opacity="1"><g transform="translate(99.849775, 37.712175)"><g><path d="M 3.390625 0.140625 C 2.859375 0.140625 2.351562 0.0234375 1.875 -0.203125 C 1.40625 -0.441406 1.023438 -0.78125 0.734375 -1.21875 C 0.441406 -1.664062 0.296875 -2.1875 0.296875 -2.78125 C 0.296875 -3.375 0.441406 -3.890625 0.734375 -4.328125 C 1.023438 -4.773438 1.40625 -5.117188 1.875 -5.359375 C 2.351562 -5.597656 2.859375 -5.71875 3.390625 -5.71875 C 3.929688 -5.71875 4.4375 -5.597656 4.90625 -5.359375 C 5.375 -5.117188 5.753906 -4.773438 6.046875 -4.328125 C 6.335938 -3.890625 6.484375 -3.375 6.484375 -2.78125 C 6.484375 -2.1875 6.335938 -1.664062 6.046875 -1.21875 C 5.753906 -0.78125 5.375 -0.441406 4.90625 -0.203125 C 4.4375 0.0234375 3.929688 0.140625 3.390625 0.140625 Z M 3.390625 -1.453125 C 3.785156 -1.453125 4.101562 -1.578125 4.34375 -1.828125 C 4.59375 -2.078125 4.71875 -2.394531 4.71875 -2.78125 C 4.71875 -3.164062 4.59375 -3.484375 4.34375 -3.734375 C 4.101562 -3.984375 3.785156 -4.109375 3.390625 -4.109375 C 3.003906 -4.109375 2.6875 -3.984375 2.4375 -3.734375 C 2.195312 -3.484375 2.078125 -3.164062 2.078125 -2.78125 C 2.078125 -2.394531 2.195312 -2.078125 2.4375 -1.828125 C 2.6875 -1.578125 3.003906 -1.453125 3.390625 -1.453125 Z M 3.390625 -1.453125 "/></g></g></g><g fill="#737373" fill-opacity="1"><g transform="translate(106.21709, 37.712175)"><g><path d="M 3.328125 0.140625 C 2.773438 0.140625 2.289062 0.03125 1.875 -0.1875 C 1.46875 -0.414062 1.15625 -0.734375 0.9375 -1.140625 C 0.726562 -1.554688 0.625 -2.035156 0.625 -2.578125 L 0.625 -5.578125 L 2.40625 -5.578125 L 2.40625 -2.53125 C 2.40625 -2.195312 2.488281 -1.929688 2.65625 -1.734375 C 2.832031 -1.546875 3.054688 -1.453125 3.328125 -1.453125 C 3.609375 -1.453125 3.832031 -1.546875 4 -1.734375 C 4.164062 -1.929688 4.25 -2.195312 4.25 -2.53125 L 4.25 -5.578125 L 6.046875 -5.578125 L 6.046875 -2.578125 C 6.046875 -2.035156 5.9375 -1.554688 5.71875 -1.140625 C 5.507812 -0.734375 5.195312 -0.414062 4.78125 -0.1875 C 4.375 0.03125 3.890625 0.140625 3.328125 0.140625 Z M 3.328125 0.140625 "/></g></g></g><g fill="#737373" fill-opacity="1"><g transform="translate(112.466487, 37.712175)"><g><path d="M 3.984375 -5.71875 C 4.421875 -5.71875 4.804688 -5.613281 5.140625 -5.40625 C 5.484375 -5.207031 5.75 -4.925781 5.9375 -4.5625 C 6.132812 -4.207031 6.234375 -3.800781 6.234375 -3.34375 L 6.234375 0 L 4.453125 0 L 4.453125 -2.96875 C 4.453125 -3.320312 4.363281 -3.597656 4.1875 -3.796875 C 4.019531 -4.003906 3.785156 -4.109375 3.484375 -4.109375 C 3.179688 -4.109375 2.9375 -4.003906 2.75 -3.796875 C 2.5625 -3.585938 2.46875 -3.3125 2.46875 -2.96875 L 2.46875 0 L 0.671875 0 L 0.671875 -5.578125 L 2.34375 -5.578125 L 2.34375 -5.03125 C 2.78125 -5.488281 3.328125 -5.71875 3.984375 -5.71875 Z M 3.984375 -5.71875 "/></g></g></g><g fill="#737373" fill-opacity="1"><g transform="translate(118.91956, 37.712175)"><g><path d="M 4.15625 -4 L 2.890625 -4 L 2.890625 -2.4375 C 2.890625 -2.164062 2.960938 -1.957031 3.109375 -1.8125 C 3.253906 -1.664062 3.457031 -1.59375 3.71875 -1.59375 L 4.15625 -1.59375 L 4.15625 0 L 3.171875 0 C 2.503906 0 1.988281 -0.179688 1.625 -0.546875 C 1.269531 -0.921875 1.09375 -1.4375 1.09375 -2.09375 L 1.09375 -4 L 0.1875 -4 L 0.1875 -5.578125 L 1.09375 -5.578125 L 1.09375 -7.046875 L 2.890625 -7.046875 L 2.890625 -5.578125 L 4.15625 -5.578125 Z M 4.15625 -4 "/></g></g></g><g fill="#737373" fill-opacity="1"><g transform="translate(123.110781, 37.712175)"><g><path d="M 2.46875 0 L 0.671875 0 L 0.671875 -5.578125 L 2.46875 -5.578125 Z M 2.484375 -6.4375 L 0.640625 -6.4375 L 0.640625 -7.875 L 2.484375 -7.875 Z M 2.484375 -6.4375 "/></g></g></g><g fill="#737373" fill-opacity="1"><g transform="translate(125.844129, 37.712175)"><g><path d="M 3.984375 -5.71875 C 4.421875 -5.71875 4.804688 -5.613281 5.140625 -5.40625 C 5.484375 -5.207031 5.75 -4.925781 5.9375 -4.5625 C 6.132812 -4.207031 6.234375 -3.800781 6.234375 -3.34375 L 6.234375 0 L 4.453125 0 L 4.453125 -2.96875 C 4.453125 -3.320312 4.363281 -3.597656 4.1875 -3.796875 C 4.019531 -4.003906 3.785156 -4.109375 3.484375 -4.109375 C 3.179688 -4.109375 2.9375 -4.003906 2.75 -3.796875 C 2.5625 -3.585938 2.46875 -3.3125 2.46875 -2.96875 L 2.46875 0 L 0.671875 0 L 0.671875 -5.578125 L 2.34375 -5.578125 L 2.34375 -5.03125 C 2.78125 -5.488281 3.328125 -5.71875 3.984375 -5.71875 Z M 3.984375 -5.71875 "/></g></g></g><g fill="#737373" fill-opacity="1"><g transform="translate(132.297202, 37.712175)"><g><path d="M 4.703125 -5.578125 L 6.359375 -5.578125 L 6.359375 -0.578125 C 6.359375 -0.015625 6.253906 0.492188 6.046875 0.953125 C 5.847656 1.421875 5.523438 1.789062 5.078125 2.0625 C 4.628906 2.332031 4.0625 2.46875 3.375 2.46875 C 2.53125 2.46875 1.863281 2.265625 1.375 1.859375 C 0.882812 1.453125 0.578125 0.929688 0.453125 0.296875 L 2.234375 0.296875 C 2.460938 0.722656 2.835938 0.9375 3.359375 0.9375 C 3.765625 0.9375 4.070312 0.816406 4.28125 0.578125 C 4.5 0.347656 4.609375 0.046875 4.609375 -0.328125 L 4.609375 -0.71875 C 4.429688 -0.539062 4.203125 -0.394531 3.921875 -0.28125 C 3.648438 -0.175781 3.335938 -0.125 2.984375 -0.125 C 2.546875 -0.125 2.117188 -0.238281 1.703125 -0.46875 C 1.296875 -0.695312 0.960938 -1.023438 0.703125 -1.453125 C 0.453125 -1.878906 0.328125 -2.367188 0.328125 -2.921875 C 0.328125 -3.484375 0.453125 -3.972656 0.703125 -4.390625 C 0.960938 -4.816406 1.296875 -5.144531 1.703125 -5.375 C 2.109375 -5.601562 2.535156 -5.71875 2.984375 -5.71875 C 3.703125 -5.71875 4.273438 -5.488281 4.703125 -5.03125 Z M 3.375 -1.65625 C 3.75 -1.65625 4.054688 -1.773438 4.296875 -2.015625 C 4.535156 -2.253906 4.65625 -2.554688 4.65625 -2.921875 C 4.65625 -3.285156 4.535156 -3.585938 4.296875 -3.828125 C 4.054688 -4.066406 3.75 -4.1875 3.375 -4.1875 C 3 -4.1875 2.691406 -4.066406 2.453125 -3.828125 C 2.210938 -3.585938 2.09375 -3.285156 2.09375 -2.921875 C 2.09375 -2.554688 2.210938 -2.253906 2.453125 -2.015625 C 2.691406 -1.773438 3 -1.65625 3.375 -1.65625 Z M 3.375 -1.65625 "/></g></g></g></svg>